<svg width="30" height="32" viewBox="0 0 30 32" fill="none" xmlns="http://www.w3.org/2000/svg">
<path d="M17.4532 17.9995C12.7474 18.739 8.27299 18.2522 4.20297 15.4856C4.71904 16.2783 5.39205 16.9274 6.15019 17.4834C7.97771 18.8268 10.0659 19.545 12.2845 19.8483C14.1333 20.101 16.014 20.1302 17.8602 20.3989C21.9089 20.9868 25.5879 22.4951 28.796 25.0728C29.0088 25.2457 29.195 25.4558 29.3733 25.666C30.4586 26.9535 30.1155 28.4033 28.4901 28.8582C27.0004 29.2758 25.4469 29.4806 23.9147 29.7254C23.3055 29.8238 22.6724 29.8105 22.0526 29.7866C20.1186 29.7147 18.8072 28.5576 17.6367 27.177C16.8094 26.2033 15.9821 25.2297 15.0856 24.2428C15.2798 25.4452 14.4339 26.1502 13.8699 26.9881C13.5534 27.4563 13.2235 27.9165 12.9203 28.3528C17.6952 29.4168 22.4383 30.4755 27.1813 31.5343C27.1733 31.5768 27.1653 31.6221 27.1574 31.6646C18.7194 30.3745 10.2814 29.1668 1.72371 30.6298C1.71307 30.558 1.70509 30.4862 1.69445 30.4144C2.34352 30.2202 2.9793 29.9196 3.64168 29.8504C5.16594 29.6908 6.37897 29.0497 7.37918 27.8979C7.85269 27.3525 8.4592 26.9269 8.98857 26.4295C9.4807 25.9666 9.52592 25.6766 9.15616 25.1074C8.50708 24.1072 7.82875 23.1229 7.16371 22.1333C7.02539 21.9258 6.90036 21.7104 6.70085 21.3885C9.97017 22.2451 13.1437 22.3222 16.3465 21.8194C16.0938 21.8194 15.8411 21.8168 15.5884 21.8194C15.3117 21.8248 15.0351 21.838 14.7584 21.8434C11.2178 21.9258 7.79949 21.3273 4.69776 19.5982C2.2451 18.2336 0.518668 16.1773 0.0770839 13.291C-0.199571 11.4768 0.242011 9.88867 1.83278 8.76077C1.98175 8.65437 2.07751 8.35909 2.06687 8.15692C1.99771 6.88537 2.07219 5.63244 2.39407 4.39814C3.14955 1.5039 5.24841 0.035492 8.23043 0.386631C9.26523 0.508998 10.2734 0.509002 11.3135 0.415897C12.1541 0.341413 13.0373 0.461121 13.8726 0.642011C14.6893 0.817581 15.2958 1.37887 15.7001 2.10243C14.6786 2.3445 13.6518 2.50943 12.6835 2.84195C11.9972 3.0787 11.3268 3.46442 10.7655 3.92728C10.0287 4.5338 10.026 5.27598 10.7123 5.95166C11.3242 6.55551 12.0211 7.07956 12.7048 7.60361C14.2104 8.76077 15.4447 10.1361 16.2587 11.8678C16.3465 12.054 16.4184 12.2509 16.4928 12.4451C16.5221 12.5222 16.5354 12.6073 16.5567 12.6898C14.7425 12.9585 10.7443 11.2959 7.56007 8.9257C7.88993 9.75833 8.37674 10.3569 8.90611 10.9075C10.5102 12.5861 12.5345 13.5943 14.66 14.4269C15.4261 14.7275 16.2055 15.0015 16.9637 15.342C14.6706 15.5654 12.4734 15.1877 10.3426 14.3577C8.20649 13.5251 6.32843 12.2828 4.56209 10.7612C4.65254 11.0379 4.72436 11.3252 4.8414 11.5912C5.54634 13.2165 6.81789 14.3258 8.26767 15.2462C10.3825 16.5896 12.7394 17.2387 15.2 17.5659C15.9502 17.6669 16.703 17.7547 17.4532 17.8478C17.4532 17.9037 17.4532 17.9516 17.4532 17.9995ZM11.5476 22.7425C11.5077 22.7691 11.4652 22.7957 11.4253 22.8223C11.4918 23.5964 11.5583 24.3679 11.6248 25.142C11.6727 25.6979 11.5077 26.1555 11.0608 26.5119C10.2255 27.1823 9.39823 27.8659 8.57093 28.5443C8.42462 28.664 8.29161 28.7997 8.05486 29.0151C9.12158 28.8795 10.0287 28.7731 10.9331 28.6454C11.0661 28.6267 11.2364 28.5416 11.3029 28.4326C11.7897 27.6398 12.3005 26.8524 12.7075 26.0171C12.8724 25.682 12.9469 25.1632 12.8032 24.8467C12.468 24.1098 11.9759 23.4395 11.5476 22.7425Z" fill="#FF8000"/>
</svg>
